<svg id="Layer_1" data-name="Layer 1" xmlns="http://www.w3.org/2000/svg" xmlns:xlink="http://www.w3.org/1999/xlink" viewBox="0 0 599.85 265.2"><defs><style>.cls-1{fill:url(#linear-gradient);}.cls-2{fill:none;}.cls-3{fill:url(#linear-gradient-2);}.cls-4{fill:url(#linear-gradient-3);}.cls-5{fill:url(#New_Gradient_Swatch_copy_61);}.cls-6{fill:url(#linear-gradient-4);}.cls-7{fill:url(#New_Gradient_Swatch_copy_61-2);}.cls-8{fill:url(#linear-gradient-5);}.cls-9{fill:#606060;}.cls-10{fill:url(#linear-gradient-6);}.cls-11{fill:url(#New_Gradient_Swatch_copy_61-3);}.cls-12{fill:url(#New_Gradient_Swatch_copy_61-4);}.cls-13{fill:#00afed;}.cls-14{font-size:115px;fill:#042a3c;font-family:MyriadPro-Bold, Myriad Pro;font-weight:700;letter-spacing:-0.02em;}.cls-15{letter-spacing:0em;}</style><linearGradient id="linear-gradient" x1="496.04" y1="382.36" x2="553.86" y2="382.36" gradientUnits="userSpaceOnUse"><stop offset="0" stop-color="#2e3191"/><stop offset="0.83" stop-color="#00c5d4"/></linearGradient><linearGradient id="linear-gradient-2" x1="453.36" y1="291.05" x2="511.75" y2="346.2" xlink:href="#linear-gradient"/><linearGradient id="linear-gradient-3" x1="402.56" y1="363.42" x2="515.01" y2="403.07" gradientUnits="userSpaceOnUse"><stop offset="0" stop-color="#00abff"/><stop offset="1" stop-color="#005dff"/></linearGradient><radialGradient id="New_Gradient_Swatch_copy_61" cx="553.31" cy="-304.3" r="146.48" gradientTransform="translate(-122.44 519.98) rotate(10.31)" gradientUnits="userSpaceOnUse"><stop offset="0" stop-color="#f1a31e"/><stop offset="1" stop-color="#f05530"/></radialGradient><linearGradient id="linear-gradient-4" x1="403.35" y1="361.18" x2="515.8" y2="400.83" xlink:href="#linear-gradient-3"/><radialGradient id="New_Gradient_Swatch_copy_61-2" cx="572.64" cy="-740.64" r="71.98" gradientTransform="translate(-285.67 890.68) rotate(18.18)" xlink:href="#New_Gradient_Swatch_copy_61"/><linearGradient id="linear-gradient-5" x1="405.88" y1="354" x2="518.33" y2="393.64" xlink:href="#linear-gradient-3"/><linearGradient id="linear-gradient-6" x1="388.42" y1="403.52" x2="500.87" y2="443.17" xlink:href="#linear-gradient-3"/><radialGradient id="New_Gradient_Swatch_copy_61-3" cx="552.44" cy="-303.27" r="146.48" xlink:href="#New_Gradient_Swatch_copy_61"/><radialGradient id="New_Gradient_Swatch_copy_61-4" cx="571.92" cy="-739.5" r="71.98" gradientTransform="translate(-285.67 890.68) rotate(18.18)" xlink:href="#New_Gradient_Swatch_copy_61"/></defs><title>flosunj_logo</title><path class="cls-1" d="M536.93,315.68h16.93v87.81c0,34.85-17.13,45.56-39.71,45.56-6.23,0-13.83-1.37-18.11-3.12l2.53-13.82a40.46,40.46,0,0,0,14.21,2.53c15.19,0,24.15-6.82,24.15-32.52Z" transform="translate(-352.77 -263.26)"/><path class="cls-2" d="M480,401.44a32.13,32.13,0,0,0-.47-4.06h-.22A31,31,0,0,1,480,401.44Z" transform="translate(-352.77 -263.26)"/><path class="cls-3" d="M472.7,326.35h49c4.3,0,8.07-3.24,8.07-7.54,0-4.85-3.23-8.07-8.07-8.07h-57a7.91,7.91,0,0,0-8.06,8.07v13.08c2.48,9.54,9.44,17.4,16.14,25.57Z" transform="translate(-352.77 -263.26)"/><path class="cls-4" d="M479.52,397.38a45.49,45.49,0,0,0-6.83-16.14h-2.08c4,4.73,7.22,9.93,8.69,16.14Z" transform="translate(-352.77 -263.26)"/><path class="cls-5" d="M481.52,369.45l-.63-1.09C481.09,368.71,481.3,369.08,481.52,369.45Z" transform="translate(-352.77 -263.26)"/><path class="cls-6" d="M486.74,381.24H472.69a45.49,45.49,0,0,1,6.83,16.14h9.4A52.75,52.75,0,0,0,486.74,381.24Z" transform="translate(-352.77 -263.26)"/><path class="cls-7" d="M461.51,467.34c.1-.16.18-.33.28-.5l-.24-.08C461.54,467,461.53,467.14,461.51,467.34Z" transform="translate(-352.77 -263.26)"/><path class="cls-8" d="M521.67,381.24H486.74a52.75,52.75,0,0,1,2.18,16.14h32.75a8.28,8.28,0,0,0,8.07-8.07A7.92,7.92,0,0,0,521.67,381.24Z" transform="translate(-352.77 -263.26)"/><path class="cls-9" d="M478.85,370.21c.36.64.75,1.31,1.17,2h0Z" transform="translate(-352.77 -263.26)"/><path class="cls-10" d="M456.56,390.1v12.23c1.39,1.64,2.72,3.32,3.93,5.07,12.32,17.76,11.76,41,1.3,59.44a8.38,8.38,0,0,0,2.83.5,8.28,8.28,0,0,0,8.08-8.07V408.52C468.88,401.43,462.84,395.65,456.56,390.1Z" transform="translate(-352.77 -263.26)"/><path class="cls-11" d="M477.07,431.08c12.18-17.57,14.89-40.89,4-59.82l.58,1-.58-1c-.43-.73-.82-1.4-1.18-2l1.17,2c-10.07-17.44-30.26-29.92-25.82-52C426,351,477.38,370.33,479,402.3c-3.22-30.95-48.61-37.81-39-73.47C409.94,384.32,485.82,383.47,477.07,431.08Z" transform="translate(-352.77 -263.26)"/><path class="cls-12" d="M459.45,408.25C448,391.7,426.81,380.94,429.4,358.6c-26.18,34.52,26.32,48.87,30.56,80.76-5.78-30.55-52-33.7-44.95-70-8.57,19.56-8.33,38.48,9.3,52.29S463.17,441,460.47,468.2C471.2,449.71,471.88,426.17,459.45,408.25Z" transform="translate(-352.77 -263.26)"/><path class="cls-13" d="M586.48,460.2h0c.19-.23.39-.44.59-.66a178,178,0,0,0-21.42-1A101.12,101.12,0,1,1,451.23,294.64a118.33,118.33,0,0,1,7.21-21.09,24.64,24.64,0,0,1-3.67,1.73h0a24.14,24.14,0,0,1-23.81-4l-9.7-8A143.49,143.49,0,0,0,404.83,275l4.4,11.79a24.16,24.16,0,0,1-4,23.82h0A24.14,24.14,0,0,1,382.6,319l-12.45-2.1a142.19,142.19,0,0,0-8.36,18.34l9.73,8A24.15,24.15,0,0,1,380,365.9h0a24.16,24.16,0,0,1-15.38,18.63l-11.81,4.4A140.49,140.49,0,0,0,354.68,409l12.44,2.09a24.13,24.13,0,0,1,18.62,15.37h0a24.15,24.15,0,0,1-4,23.82l-8,9.7a143.49,143.49,0,0,0,11.7,16.43l11.79-4.4A24.13,24.13,0,0,1,421,476h0a24.15,24.15,0,0,1,8.44,22.63l-2.09,12.44a140.25,140.25,0,0,0,18.34,8.36h0l8-9.72a24.14,24.14,0,0,1,22.62-8.44h0A24.13,24.13,0,0,1,495,516.65l4.41,11.82h0a141.66,141.66,0,0,0,20.06-1.91l2.1-12.44a24.16,24.16,0,0,1,15.37-18.63h0a24.14,24.14,0,0,1,23.81,4l9.71,8a144.46,144.46,0,0,0,16.43-11.71L582.48,484A24.15,24.15,0,0,1,586.48,460.2Z" transform="translate(-352.77 -263.26)"/><text class="cls-14" transform="translate(211.39 166.35)">F<tspan class="cls-15" x="58.88" y="0">losunJ</tspan></text></svg>