<svg id="Layer_1" data-name="Layer 1" xmlns="http://www.w3.org/2000/svg" viewBox="0 0 895.41 395.87"><defs><style>.cls-1,.cls-2{fill:#fff;}.cls-2{font-size:171.66px;font-family:MyriadPro-Bold, Myriad Pro;font-weight:700;}.cls-3{letter-spacing:-0.02em;}</style></defs><title>flosunj_logo</title><path class="cls-1" d="M436.88,276.17h25.29V407.24c0,52-25.58,68-59.29,68-9.3,0-20.63-2-27-4.65L379.63,450a60.43,60.43,0,0,0,21.22,3.77c22.66,0,36-10.17,36-48.53Z" transform="translate(-161.99 -197.93)"/><path class="cls-1" d="M351.9,404.19a46.84,46.84,0,0,0-.71-6.06h-.32A48.47,48.47,0,0,1,351.9,404.19Z" transform="translate(-161.99 -197.93)"/><path class="cls-1" d="M341,292.1h73.1c6.42,0,12.05-4.83,12.05-11.25,0-7.24-4.82-12.06-12.05-12.06H329a11.83,11.83,0,0,0-12,12.06v19.52c3.71,14.24,14.1,26,24.09,38.16Z" transform="translate(-161.99 -197.93)"/><path class="cls-1" d="M351.19,398.13c-1.55-8.55-5.36-16.5-10.19-24.1h-3.1c6,7.06,10.77,14.83,13,24.1Z" transform="translate(-161.99 -197.93)"/><path class="cls-1" d="M354.18,356.44l-.94-1.63C353.54,355.33,353.85,355.88,354.18,356.44Z" transform="translate(-161.99 -197.93)"/><path class="cls-1" d="M362,374H341c4.83,7.6,8.64,15.55,10.19,24.1h14A79,79,0,0,0,362,374Z" transform="translate(-161.99 -197.93)"/><path class="cls-1" d="M324.31,502.56l.42-.74-.36-.12C324.35,502,324.34,502.26,324.31,502.56Z" transform="translate(-161.99 -197.93)"/><path class="cls-1" d="M414.11,374H362a79,79,0,0,1,3.25,24.1h48.89a12.36,12.36,0,0,0,12.05-12.05A11.83,11.83,0,0,0,414.11,374Z" transform="translate(-161.99 -197.93)"/><path class="cls-1" d="M350.19,357.58l1.76,3h0Z" transform="translate(-161.99 -197.93)"/><path class="cls-1" d="M316.92,387.25v18.26c2.08,2.45,4.06,5,5.87,7.57,18.39,26.51,17.55,61.25,1.94,88.74a12.66,12.66,0,0,0,4.23.74A12.36,12.36,0,0,0,341,490.51V414.76C335.31,404.17,326.3,395.55,316.92,387.25Z" transform="translate(-161.99 -197.93)"/><path class="cls-1" d="M347.54,448.43c18.18-26.22,22.22-61,5.9-89.3l.88,1.52c-.29-.49-.58-1-.88-1.52l-1.76-3.05,1.76,3.05c-15-26-45.18-44.67-38.55-77.59-43.53,47.37,33.11,76.2,35.46,123.93-4.82-46.2-72.56-56.44-58.21-109.67C247.33,378.64,360.6,377.37,347.54,448.43Z" transform="translate(-161.99 -197.93)"/><path class="cls-1" d="M321.23,414.36c-17.14-24.71-48.72-40.77-44.85-74.13-39.08,51.54,39.29,73,45.61,120.56-8.62-45.6-77.56-50.3-67.1-104.45-12.78,29.19-12.42,57.44,13.89,78.05s58,28.82,54,69.45C338.78,476.24,339.79,441.1,321.23,414.36Z" transform="translate(-161.99 -197.93)"/><path class="cls-1" d="M510.86,491.9h0c.28-.34.58-.66.87-1a267.33,267.33,0,0,0-32-1.52A150.95,150.95,0,1,1,309,244.77a176.81,176.81,0,0,1,10.76-31.49,35.91,35.91,0,0,1-5.46,2.58h0a36,36,0,0,1-35.55-6l-14.48-11.95a214.57,214.57,0,0,0-24.53,17.46l6.57,17.6a36,36,0,0,1-6,35.55h0a36.06,36.06,0,0,1-33.77,12.6L187.94,278a211.26,211.26,0,0,0-12.48,27.37l14.52,12a36,36,0,0,1,12.59,33.77h0a36,36,0,0,1-22.94,27.8L162,385.52a210.8,210.8,0,0,0,2.85,30l18.58,3.12a36,36,0,0,1,27.79,23h0a36,36,0,0,1-6,35.55l-12,14.48a214.19,214.19,0,0,0,17.47,24.52l17.59-6.56a36,36,0,0,1,35.55,6h0a36.07,36.07,0,0,1,12.6,33.78l-3.12,18.57a208.61,208.61,0,0,0,27.37,12.48h0l12-14.51a36.06,36.06,0,0,1,33.77-12.6h0a36,36,0,0,1,27.8,22.95l6.58,17.63h0A210.66,210.66,0,0,0,410.82,591l3.12-18.58a36.05,36.05,0,0,1,22.95-27.8h0a36,36,0,0,1,35.55,6l14.48,12a214.1,214.1,0,0,0,24.52-17.46l-6.56-17.6A36.05,36.05,0,0,1,510.86,491.9Z" transform="translate(-161.99 -197.93)"/><text class="cls-2" transform="translate(315.54 248.32)"><tspan class="cls-3">F</tspan><tspan x="87.89" y="0">losunJ</tspan></text></svg>