<svg id="Layer_1" data-name="Layer 1" xmlns="http://www.w3.org/2000/svg" xmlns:xlink="http://www.w3.org/1999/xlink" viewBox="0 0 312.2 138.03"><defs><style>.cls-1{fill:url(#linear-gradient);}.cls-2{fill:none;}.cls-3{fill:url(#linear-gradient-2);}.cls-4{fill:url(#linear-gradient-3);}.cls-5{fill:url(#New_Gradient_Swatch_copy_61);}.cls-6{fill:url(#linear-gradient-4);}.cls-7{fill:url(#New_Gradient_Swatch_copy_61-2);}.cls-8{fill:url(#linear-gradient-5);}.cls-9{fill:#606060;}.cls-10{fill:url(#linear-gradient-6);}.cls-11{fill:url(#New_Gradient_Swatch_copy_61-3);}.cls-12{fill:url(#New_Gradient_Swatch_copy_61-4);}.cls-13,.cls-14{fill:#00afed;}.cls-14{font-size:59.85px;font-family:MyriadPro-Bold, Myriad Pro;font-weight:700;}.cls-15{letter-spacing:-0.01em;}</style><linearGradient id="linear-gradient" x1="528.16" y1="388.84" x2="558.26" y2="388.84" gradientUnits="userSpaceOnUse"><stop offset="0" stop-color="#2e3191"/><stop offset="0.83" stop-color="#00c5d4"/></linearGradient><linearGradient id="linear-gradient-2" x1="505.95" y1="341.31" x2="536.34" y2="370.01" xlink:href="#linear-gradient"/><linearGradient id="linear-gradient-3" x1="479.51" y1="378.98" x2="538.04" y2="399.61" gradientUnits="userSpaceOnUse"><stop offset="0" stop-color="#00abff"/><stop offset="1" stop-color="#005dff"/></linearGradient><radialGradient id="New_Gradient_Swatch_copy_61" cx="600.73" cy="-275.78" r="76.24" gradientTransform="translate(-122.44 519.98) rotate(10.31)" gradientUnits="userSpaceOnUse"><stop offset="0" stop-color="#f1a31e"/><stop offset="1" stop-color="#f05530"/></radialGradient><linearGradient id="linear-gradient-4" x1="479.92" y1="377.81" x2="538.45" y2="398.45" xlink:href="#linear-gradient-3"/><radialGradient id="New_Gradient_Swatch_copy_61-2" cx="610.67" cy="-737.88" r="37.46" gradientTransform="translate(-285.67 890.68) rotate(18.18)" xlink:href="#New_Gradient_Swatch_copy_61"/><linearGradient id="linear-gradient-5" x1="481.24" y1="374.07" x2="539.76" y2="394.71" xlink:href="#linear-gradient-3"/><linearGradient id="linear-gradient-6" x1="472.15" y1="399.85" x2="530.68" y2="420.49" xlink:href="#linear-gradient-3"/><radialGradient id="New_Gradient_Swatch_copy_61-3" cx="600.28" cy="-275.24" r="76.24" xlink:href="#New_Gradient_Swatch_copy_61"/><radialGradient id="New_Gradient_Swatch_copy_61-4" cx="610.29" cy="-737.29" r="37.46" gradientTransform="translate(-285.67 890.68) rotate(18.18)" xlink:href="#New_Gradient_Swatch_copy_61"/></defs><title>logo-main</title><path class="cls-1" d="M549.44,354.13h8.82v45.7c0,18.14-8.92,23.71-20.68,23.71a28.59,28.59,0,0,1-9.42-1.62l1.32-7.19a21,21,0,0,0,7.4,1.32c7.9,0,12.56-3.55,12.56-16.93Z" transform="translate(-453.59 -326.85)"/><path class="cls-2" d="M519.81,398.77a16.21,16.21,0,0,0-.25-2.11h-.11A17.51,17.51,0,0,1,519.81,398.77Z" transform="translate(-453.59 -326.85)"/><path class="cls-3" d="M516,359.68H541.5a4.07,4.07,0,0,0,4.2-3.92,4,4,0,0,0-4.2-4.2H511.81a4.12,4.12,0,0,0-4.2,4.2v6.81c1.29,5,4.92,9.06,8.4,13.3Z" transform="translate(-453.59 -326.85)"/><path class="cls-4" d="M519.56,396.66a23.79,23.79,0,0,0-3.55-8.41h-1.08a20.23,20.23,0,0,1,4.52,8.41Z" transform="translate(-453.59 -326.85)"/><path class="cls-5" d="M520.6,382.12l-.33-.57Z" transform="translate(-453.59 -326.85)"/><path class="cls-6" d="M523.32,388.25H516a23.79,23.79,0,0,1,3.55,8.41h4.89A27.35,27.35,0,0,0,523.32,388.25Z" transform="translate(-453.59 -326.85)"/><path class="cls-7" d="M510.19,433.07l.14-.26-.12,0C510.2,432.87,510.2,433,510.19,433.07Z" transform="translate(-453.59 -326.85)"/><path class="cls-8" d="M541.5,388.25H523.32a27.35,27.35,0,0,1,1.13,8.41h17a4.32,4.32,0,0,0,4.2-4.21A4.12,4.12,0,0,0,541.5,388.25Z" transform="translate(-453.59 -326.85)"/><path class="cls-9" d="M519.21,382.51l.62,1.07h0Z" transform="translate(-453.59 -326.85)"/><path class="cls-10" d="M507.61,392.86v6.37a32.19,32.19,0,0,1,2.05,2.64c6.41,9.24,6.12,21.35.67,30.94a4.61,4.61,0,0,0,1.48.26,4.32,4.32,0,0,0,4.2-4.21V402.45C514,398.76,510.88,395.75,507.61,392.86Z" transform="translate(-453.59 -326.85)"/><path class="cls-11" d="M518.29,414.19c6.34-9.14,7.75-21.28,2.06-31.13l.3.52-.3-.52-.62-1.07.62,1.07C515.1,374,504.59,367.48,506.9,356c-15.17,16.52,11.55,26.57,12.37,43.21C517.59,383.1,494,379.54,499,361,483.35,389.86,522.84,389.42,518.29,414.19Z" transform="translate(-453.59 -326.85)"/><path class="cls-12" d="M509.12,402.31c-6-8.61-17-14.21-15.64-25.84-13.63,18,13.7,25.44,15.9,42-3-15.9-27-17.54-23.39-36.42-4.46,10.18-4.34,20,4.84,27.22s20.22,10.05,18.82,24.21C515.23,423.89,515.59,411.64,509.12,402.31Z" transform="translate(-453.59 -326.85)"/><path class="cls-13" d="M575.23,429.35h0c.1-.12.21-.23.31-.34a93.3,93.3,0,0,0-11.15-.54,52.63,52.63,0,1,1-59.55-85.29,61.5,61.5,0,0,1,3.75-11,12.37,12.37,0,0,1-1.91.9h0A12.56,12.56,0,0,1,494.29,331l-5.05-4.17a74.44,74.44,0,0,0-8.55,6.09l2.29,6.13a12.57,12.57,0,0,1-2.09,12.4h0a12.54,12.54,0,0,1-11.77,4.39l-6.48-1.09a73.64,73.64,0,0,0-4.35,9.55l5.06,4.18a12.54,12.54,0,0,1,4.39,11.77h0a12.55,12.55,0,0,1-8,9.69l-6.15,2.3a73.68,73.68,0,0,0,1,10.44l6.47,1.09a12.56,12.56,0,0,1,9.7,8h0a12.56,12.56,0,0,1-2.09,12.39l-4.17,5.05a75.68,75.68,0,0,0,6.09,8.55l6.14-2.28a12.55,12.55,0,0,1,12.39,2.08h0a12.57,12.57,0,0,1,4.4,11.78l-1.09,6.47a72.91,72.91,0,0,0,9.54,4.35h0l4.18-5.06a12.58,12.58,0,0,1,11.77-4.39h0a12.56,12.56,0,0,1,9.7,8l2.29,6.15h0a73.67,73.67,0,0,0,10.44-1l1.09-6.48a12.59,12.59,0,0,1,8-9.69h0a12.57,12.57,0,0,1,12.4,2.08l5,4.17a74.44,74.44,0,0,0,8.55-6.09l-2.29-6.13A12.57,12.57,0,0,1,575.23,429.35Z" transform="translate(-453.59 -326.85)"/><text class="cls-14" transform="translate(110.02 86.58)"><tspan class="cls-15">F</tspan><tspan x="30.65" y="0">losunJ</tspan></text></svg>